# xmcd
#
# Track frame offsets:
#	150
#	24210
#	45884
#	68433
#	88808
#	103814
#	124731
#	150378
#	165745
#	179766
#	191326
#	211554
#	231400
#	261696
#	277300
#
# Disc length: 3920 seconds
#
# Revision: 0
# Processed by: cddbd v1.4PL0 Copyright (c) Steve Scherf et al.
# Submitted via: EasyCDDAExtractor 5.0.4.1
#
DISCID=cd0f4e0f
DTITLE=John Lee Hooker - With Some Friends
DYEAR=1900
DGENRE=Blues
TTITLE0=Gloria (with Van Morrison)
TTITLE1=Chill Out (with Carlos Santana)
TTITLE2=You Shook Me (with B.B.King)
TTITLE3=I'm In The Mood (with Bonnie Raitt)
TTITLE4=Sally Mae (with George Thorogood)
TTITLE5=Boogie Chillen (with Eric Clapton)
TTITLE6=The Healer (with Carlos Santana)
TTITLE7=Crawlin' Kingsnake (with Keith Richards)
TTITLE8=One Bourbon One Scotch One Beer (with Robert Cray)
TTITLE9=Big Leg Tight Skirt (with Ry Cooder)
TTITLE10=Susie (with Johnny Winter)
TTITLE11=That's Alright (with Charles Musselwhite)
TTITLE12=I Cover The Waterfront (with Van Morrison)
TTITLE13=This Is Hip (with Ry Cooder)
TTITLE14=Baby Lee (with Robert Cray)
EXTD=
EXTT0=
EXTT1=
EXTT2=
EXTT3=
EXTT4=
EXTT5=
EXTT6=
EXTT7=
EXTT8=
EXTT9=
EXTT10=
EXTT11=
EXTT12=
EXTT13=
EXTT14=
PLAYORDER=
